<svg width="250" height="379" viewBox="0 0 250 379" fill="none" xmlns="http://www.w3.org/2000/svg">
<mask id="path-1-inside-1_47_73" fill="white">
<path fill-rule="evenodd" clip-rule="evenodd" d="M250 125H0L33 357C33 369.15 74.4137 379 125.5 379C176.586 379 218 369.15 218 357L250 125Z"/>
</mask>
<path fill-rule="evenodd" clip-rule="evenodd" d="M250 125H0L33 357C33 369.15 74.4137 379 125.5 379C176.586 379 218 369.15 218 357L250 125Z" fill="#858585"/>
<path d="M0 125V121H-4.60923L-3.96014 125.563L0 125ZM250 125L253.962 125.547L254.59 121H250V125ZM33 357H37V356.717L36.9601 356.437L33 357ZM218 357L214.038 356.453L214 356.725V357H218ZM0 129H250V121H0V129ZM36.9601 356.437L3.96014 124.437L-3.96014 125.563L29.0399 357.563L36.9601 356.437ZM125.5 375C100.174 375 77.374 372.555 61.0182 368.665C52.8086 366.712 46.4444 364.447 42.2297 362.077C37.6873 359.523 37 357.652 37 357H29C29 362.423 33.4894 366.34 38.3086 369.05C43.4554 371.944 50.6375 374.419 59.1671 376.448C76.2896 380.52 99.7399 383 125.5 383V375ZM214 357C214 357.652 213.313 359.523 208.77 362.077C204.556 364.447 198.191 366.712 189.982 368.665C173.626 372.555 150.826 375 125.5 375V383C151.26 383 174.71 380.52 191.833 376.448C200.363 374.419 207.545 371.944 212.691 369.05C217.511 366.34 222 362.423 222 357H214ZM246.038 124.453L214.038 356.453L221.962 357.547L253.962 125.547L246.038 124.453Z" fill="black" mask="url(#path-1-inside-1_47_73)"/>
<path d="M248 124C248 127.466 245.307 131.286 239.118 135.148C233.034 138.946 224.098 142.439 212.878 145.401C190.467 151.317 159.397 155 125 155C90.6032 155 59.5329 151.317 37.1222 145.401C25.902 142.439 16.9658 138.946 10.8821 135.148C4.69343 131.286 2 127.466 2 124C2 120.534 4.69343 116.714 10.8821 112.852C16.9658 109.054 25.902 105.561 37.1222 102.599C59.5329 96.6828 90.6032 93 125 93C159.397 93 190.467 96.6828 212.878 102.599C224.098 105.561 233.034 109.054 239.118 112.852C245.307 116.714 248 120.534 248 124Z" fill="#858585" stroke="black" stroke-width="4"/>
<mask id="path-4-inside-2_47_73" fill="white">
<path fill-rule="evenodd" clip-rule="evenodd" d="M2.42419 130.5C13.8591 115.387 64.3923 104 125 104C185.608 104 236.141 115.387 247.576 130.5C236.141 145.613 185.608 157 125 157C64.3923 157 13.8591 145.613 2.42419 130.5Z"/>
</mask>
<path fill-rule="evenodd" clip-rule="evenodd" d="M2.42419 130.5C13.8591 115.387 64.3923 104 125 104C185.608 104 236.141 115.387 247.576 130.5C236.141 145.613 185.608 157 125 157C64.3923 157 13.8591 145.613 2.42419 130.5Z" fill="url(#paint0_linear_47_73)"/>
<path d="M2.42419 130.5L-0.765594 128.086L-2.59181 130.5L-0.765594 132.914L2.42419 130.5ZM247.576 130.5L250.766 132.914L252.592 130.5L250.766 128.086L247.576 130.5ZM5.61398 132.914C7.85264 129.955 12.4003 126.748 19.4821 123.648C26.4586 120.594 35.4707 117.823 46.1275 115.49C67.4304 110.828 94.9216 108 125 108V100C94.4708 100 66.3915 102.866 44.4171 107.675C33.4354 110.079 23.8821 112.988 16.2736 116.32C8.77035 119.605 2.71322 123.489 -0.765594 128.086L5.61398 132.914ZM125 108C155.078 108 182.57 110.828 203.872 115.49C214.529 117.823 223.541 120.594 230.518 123.648C237.6 126.748 242.147 129.955 244.386 132.914L250.766 128.086C247.287 123.489 241.23 119.605 233.726 116.32C226.118 112.988 216.565 110.079 205.583 107.675C183.609 102.866 155.529 100 125 100V108ZM244.386 128.086C242.147 131.045 237.6 134.252 230.518 137.352C223.541 140.406 214.529 143.177 203.872 145.51C182.57 150.172 155.078 153 125 153V161C155.529 161 183.609 158.134 205.583 153.325C216.565 150.921 226.118 148.012 233.726 144.68C241.23 141.395 247.287 137.511 250.766 132.914L244.386 128.086ZM125 153C94.9216 153 67.4304 150.172 46.1275 145.51C35.4707 143.177 26.4586 140.406 19.4821 137.352C12.4003 134.252 7.85264 131.045 5.61398 128.086L-0.765594 132.914C2.71322 137.511 8.77035 141.395 16.2736 144.68C23.8821 148.012 33.4354 150.921 44.4171 153.325C66.3915 158.134 94.4708 161 125 161V153Z" fill="black" mask="url(#path-4-inside-2_47_73)"/>
<path d="M30 203.294C33.953 203.468 37.021 203.555 39.204 203.555H42.4785C43.4225 203.555 44.6025 203.526 46.0184 203.468C47.1984 203.41 48.7029 203.381 50.5319 203.381C52.3609 203.323 54.5439 203.236 57.0809 203.12C55.9009 203.933 54.9569 204.717 54.2489 205.472C53.5409 206.228 52.9804 206.896 52.5674 207.477C52.0954 208.174 51.7709 208.813 51.5939 209.394C51.1809 210.904 51.0039 212.966 51.0629 215.58C51.1809 218.136 51.4464 220.925 51.8594 223.945C52.2724 226.908 52.7739 229.929 53.3639 233.008C53.9539 236.087 54.5439 238.875 55.1339 241.373C55.7829 243.871 56.3434 245.933 56.8154 247.56C57.3464 249.128 57.7299 249.912 57.9659 249.912C58.2019 249.912 58.6444 249.07 59.2934 247.385C60.0014 245.701 60.7979 243.58 61.6829 241.024C62.5679 238.41 63.4824 235.593 64.4264 232.572C65.3704 229.493 66.2259 226.589 66.9929 223.858C67.8189 221.07 68.4974 218.688 69.0284 216.713C69.5594 214.68 69.8249 213.431 69.8249 212.966C69.7659 212.327 69.5594 211.659 69.2054 210.962C68.9104 210.323 68.3794 209.597 67.6124 208.784C66.9044 207.912 65.9014 206.925 64.6034 205.821C66.4324 205.763 67.9959 205.705 69.2939 205.647C70.6509 205.589 71.8014 205.56 72.7454 205.56H89.6488C88.1738 206.547 86.9053 207.506 85.8433 208.435C84.8403 209.365 84.0143 210.236 83.3653 211.049C82.5983 211.979 81.9493 212.85 81.4183 213.663C80.8283 214.883 79.8548 217.526 78.4978 221.593C77.9078 223.336 77.2294 225.456 76.4624 227.954C75.6954 230.452 74.7809 233.443 73.7189 236.929C72.6569 240.414 71.4769 244.452 70.1789 249.041C68.8809 253.572 67.4059 258.742 65.7539 264.551L53.4524 266.12C51.9774 261.589 50.6794 257.464 49.5584 253.746C48.4964 249.97 47.5524 246.746 46.7264 244.074C45.7824 240.937 44.986 238.12 44.337 235.622C43.452 232.601 42.685 229.551 42.036 226.472C41.446 223.336 40.915 220.518 40.443 218.02C40.03 215.464 39.6465 213.344 39.2925 211.659C38.9385 209.975 38.555 208.987 38.142 208.697C37.788 208.406 37.257 208.028 36.549 207.564C35.9 207.157 35.074 206.634 34.071 205.995C33.009 205.298 31.652 204.398 30 203.294Z" fill="black"/>
<path d="M161.387 203.12C163.157 203.468 164.661 203.73 165.9 203.904C167.139 204.078 168.172 204.223 168.998 204.34C169.942 204.456 170.738 204.514 171.387 204.514C172.036 204.514 172.921 204.485 174.042 204.427C175.045 204.369 176.314 204.34 177.848 204.34C179.382 204.282 181.329 204.194 183.689 204.078C182.332 205.008 181.24 205.792 180.414 206.431C179.588 207.07 178.969 207.622 178.556 208.087C178.025 208.609 177.7 209.045 177.582 209.394C177.464 209.626 177.346 210.497 177.228 212.008C177.11 213.46 176.992 215.319 176.874 217.584C176.815 219.792 176.815 222.29 176.874 225.078C176.933 227.809 177.081 230.597 177.317 233.443C177.612 236.29 178.025 239.049 178.556 241.721C179.087 244.336 179.795 246.63 180.68 248.605C181.624 250.58 182.745 252.12 184.043 253.223C185.4 254.327 187.022 254.734 188.91 254.443C191.388 254.095 193.394 252.904 194.928 250.871C196.462 248.838 197.613 246.369 198.38 243.464C199.206 240.56 199.707 237.452 199.884 234.14C200.12 230.771 200.15 227.634 199.973 224.73C199.855 221.767 199.619 219.211 199.265 217.062C198.911 214.912 198.586 213.576 198.291 213.053C197.937 212.472 197.465 211.804 196.875 211.049C196.403 210.41 195.784 209.684 195.017 208.871C194.25 207.999 193.365 207.07 192.362 206.082C194.191 206.14 195.843 206.199 197.318 206.257C198.793 206.257 200.032 206.286 201.035 206.344C202.215 206.402 203.277 206.46 204.221 206.518C205.165 206.576 206.345 206.663 207.761 206.78C208.941 206.896 210.445 207.012 212.274 207.128C214.162 207.244 216.404 207.419 219 207.651C217.997 207.883 217.171 208.203 216.522 208.609C215.932 209.016 215.46 209.452 215.106 209.916C214.693 210.439 214.398 210.962 214.221 211.485C214.044 211.95 213.897 213.344 213.779 215.667C213.72 217.933 213.602 220.692 213.425 223.945C213.307 227.14 213.1 230.626 212.805 234.402C212.51 238.12 212.038 241.663 211.389 245.033C210.799 248.402 210.003 251.394 209 254.008C208.056 256.622 206.817 258.423 205.283 259.41C203.041 260.862 200.681 261.908 198.203 262.547C195.725 263.128 193.217 263.448 190.68 263.506C188.143 263.506 185.636 263.302 183.158 262.896C180.739 262.431 178.408 261.879 176.166 261.24C173.865 260.543 171.948 258.975 170.414 256.535C168.939 254.095 167.759 251.219 166.874 247.908C166.048 244.539 165.428 240.937 165.015 237.103C164.661 233.211 164.425 229.464 164.307 225.862C164.248 222.261 164.248 219.008 164.307 216.103C164.425 213.14 164.514 210.904 164.573 209.394C164.573 208.638 164.455 207.912 164.219 207.215C164.042 206.576 163.717 205.908 163.245 205.211C162.832 204.456 162.213 203.759 161.387 203.12Z" fill="black"/>
<mask id="path-7-inside-3_47_73" fill="white">
<path fill-rule="evenodd" clip-rule="evenodd" d="M130.308 216.025C136.716 213.279 141.191 207.028 141.191 199.757C141.191 189.95 133.05 182 123.006 182C112.963 182 104.821 189.95 104.821 199.757C104.821 207.028 109.296 213.278 115.703 216.025L115.558 226.394H90.2735V237.048H115.409L114.161 326.041C92.5327 325.464 71.645 317.308 62.9388 312.167C66.4766 312.403 70.8032 313.327 76.315 314.504C79.2443 306.579 76.1168 303.202 63.0835 300.419C57.7884 299.289 54.016 297.188 51.2065 295.624C47.1007 293.338 45.0516 292.197 43.3124 296.902L43.3035 296.926C40.371 304.859 34.3919 321.035 47.4121 323.815C49.0167 320.097 50.5923 317.438 52.3521 315.603C57.2073 322.008 77.9493 332.764 92.7807 338.4C96.3849 339.769 99.9891 340.682 103.473 341.565L103.473 341.565C110.442 343.33 116.929 344.974 121.975 349.904C124.012 351.895 125.351 351.283 126.119 349.212C131.126 344.478 137.51 342.861 144.357 341.127C147.841 340.244 151.445 339.331 155.05 337.961C169.881 332.325 190.624 321.569 195.479 315.165C197.238 316.999 198.814 319.658 200.419 323.376C213.439 320.596 207.46 304.421 204.527 296.487L204.518 296.463C202.779 291.758 200.73 292.899 196.624 295.185C193.815 296.749 190.042 298.85 184.747 299.981C171.714 302.763 168.586 306.14 171.516 314.065C177.028 312.888 181.354 311.964 184.892 311.729C175.937 317.016 154.09 325.496 131.807 325.633L130.596 237.048H155.739V226.394H130.45L130.308 216.025ZM123.006 208.636C128.028 208.636 132.099 204.661 132.099 199.757C132.099 194.854 128.028 190.878 123.006 190.878C117.985 190.878 113.914 194.854 113.914 199.757C113.914 204.661 117.985 208.636 123.006 208.636Z"/>
</mask>
<path fill-rule="evenodd" clip-rule="evenodd" d="M130.308 216.025C136.716 213.279 141.191 207.028 141.191 199.757C141.191 189.95 133.05 182 123.006 182C112.963 182 104.821 189.95 104.821 199.757C104.821 207.028 109.296 213.278 115.703 216.025L115.558 226.394H90.2735V237.048H115.409L114.161 326.041C92.5327 325.464 71.645 317.308 62.9388 312.167C66.4766 312.403 70.8032 313.327 76.315 314.504C79.2443 306.579 76.1168 303.202 63.0835 300.419C57.7884 299.289 54.016 297.188 51.2065 295.624C47.1007 293.338 45.0516 292.197 43.3124 296.902L43.3035 296.926C40.371 304.859 34.3919 321.035 47.4121 323.815C49.0167 320.097 50.5923 317.438 52.3521 315.603C57.2073 322.008 77.9493 332.764 92.7807 338.4C96.3849 339.769 99.9891 340.682 103.473 341.565L103.473 341.565C110.442 343.33 116.929 344.974 121.975 349.904C124.012 351.895 125.351 351.283 126.119 349.212C131.126 344.478 137.51 342.861 144.357 341.127C147.841 340.244 151.445 339.331 155.05 337.961C169.881 332.325 190.624 321.569 195.479 315.165C197.238 316.999 198.814 319.658 200.419 323.376C213.439 320.596 207.46 304.421 204.527 296.487L204.518 296.463C202.779 291.758 200.73 292.899 196.624 295.185C193.815 296.749 190.042 298.85 184.747 299.981C171.714 302.763 168.586 306.14 171.516 314.065C177.028 312.888 181.354 311.964 184.892 311.729C175.937 317.016 154.09 325.496 131.807 325.633L130.596 237.048H155.739V226.394H130.45L130.308 216.025ZM123.006 208.636C128.028 208.636 132.099 204.661 132.099 199.757C132.099 194.854 128.028 190.878 123.006 190.878C117.985 190.878 113.914 194.854 113.914 199.757C113.914 204.661 117.985 208.636 123.006 208.636Z" fill="#CFAE70"/>
<path d="M130.308 216.025L129.323 213.727L127.786 214.386L127.808 216.059L130.308 216.025ZM115.703 216.025L118.203 216.06L118.226 214.386L116.688 213.727L115.703 216.025ZM115.558 226.394V228.894H118.023L118.058 226.429L115.558 226.394ZM90.2735 226.394V223.894H87.7735V226.394H90.2735ZM90.2735 237.048H87.7735V239.548H90.2735V237.048ZM115.409 237.048L117.908 237.083L117.944 234.548H115.409V237.048ZM114.161 326.041L114.094 328.54L116.625 328.607L116.661 326.076L114.161 326.041ZM62.9388 312.167L63.1051 309.673L61.6678 314.32L62.9388 312.167ZM76.315 314.504L75.793 316.949L77.9095 317.401L78.6599 315.371L76.315 314.504ZM63.0835 300.419L62.5616 302.864L63.0835 300.419ZM51.2065 295.624L49.9902 297.808H49.9902L51.2065 295.624ZM43.3124 296.902L45.6573 297.769L45.6573 297.769L43.3124 296.902ZM43.3035 296.926L40.9586 296.059L40.9586 296.059L43.3035 296.926ZM47.4121 323.815L46.8901 326.26L48.8951 326.688L49.7074 324.805L47.4121 323.815ZM52.3521 315.603L54.3443 314.093L52.5753 311.76L50.5481 313.873L52.3521 315.603ZM92.7807 338.4L91.8927 340.737H91.8927L92.7807 338.4ZM103.473 341.565L102.859 343.988L102.895 343.997L102.931 344.005L103.473 341.565ZM103.473 341.565L104.087 339.141L104.052 339.132L104.016 339.124L103.473 341.565ZM121.975 349.904L120.228 351.693H120.228L121.975 349.904ZM126.119 349.212L124.402 347.396L123.978 347.796L123.775 348.343L126.119 349.212ZM144.357 341.127L144.971 343.55L144.357 341.127ZM155.05 337.961L155.938 340.298L155.05 337.961ZM195.479 315.165L197.283 313.434L195.255 311.321L193.486 313.654L195.479 315.165ZM200.419 323.376L198.123 324.367L198.936 326.249L200.941 325.821L200.419 323.376ZM204.527 296.487L206.872 295.62L206.872 295.62L204.527 296.487ZM204.518 296.463L202.173 297.33L202.174 297.33L204.518 296.463ZM196.624 295.185L197.84 297.369L196.624 295.185ZM184.747 299.981L184.225 297.536L184.747 299.981ZM171.516 314.065L169.171 314.932L169.921 316.962L172.038 316.51L171.516 314.065ZM184.892 311.729L186.163 313.881L184.726 309.234L184.892 311.729ZM131.807 325.633L129.307 325.667L129.341 328.148L131.823 328.133L131.807 325.633ZM130.596 237.048V234.548H128.061L128.096 237.082L130.596 237.048ZM155.739 237.048V239.548H158.239V237.048H155.739ZM155.739 226.394H158.239V223.894H155.739V226.394ZM130.45 226.394L127.95 226.428L127.984 228.894H130.45V226.394ZM138.691 199.757C138.691 205.967 134.87 211.35 129.323 213.727L131.293 218.323C138.562 215.208 143.691 208.09 143.691 199.757H138.691ZM123.006 184.5C131.725 184.5 138.691 191.387 138.691 199.757H143.691C143.691 188.514 134.374 179.5 123.006 179.5V184.5ZM107.321 199.757C107.321 191.387 114.287 184.5 123.006 184.5V179.5C111.639 179.5 102.321 188.514 102.321 199.757H107.321ZM116.688 213.727C111.142 211.349 107.321 205.966 107.321 199.757H102.321C102.321 208.09 107.45 215.207 114.718 218.322L116.688 213.727ZM118.058 226.429L118.203 216.06L113.203 215.99L113.058 226.359L118.058 226.429ZM90.2735 228.894H115.558V223.894H90.2735V228.894ZM92.7735 237.048V226.394H87.7735V237.048H92.7735ZM115.409 234.548H90.2735V239.548H115.409V234.548ZM116.661 326.076L117.908 237.083L112.909 237.013L111.661 326.006L116.661 326.076ZM114.228 323.541C93.0787 322.978 72.6009 314.969 64.2098 310.015L61.6678 314.32C70.689 319.646 91.9868 327.95 114.094 328.54L114.228 323.541ZM62.7725 314.662C66.0893 314.883 70.2126 315.757 75.793 316.949L76.837 312.059C71.3939 310.897 66.864 309.923 63.1051 309.673L62.7725 314.662ZM78.6599 315.371C79.4498 313.233 79.9249 311.167 79.8121 309.207C79.6942 307.16 78.9403 305.351 77.5097 303.824C76.1384 302.36 74.2442 301.26 71.9894 300.358C69.7214 299.451 66.9271 298.683 63.6055 297.974L62.5616 302.864C65.7567 303.546 68.2408 304.244 70.1332 305.001C72.0389 305.763 73.1872 306.523 73.8608 307.242C74.4751 307.898 74.7684 308.593 74.8203 309.495C74.8773 310.484 74.6448 311.812 73.97 313.637L78.6599 315.371ZM63.6055 297.974C58.7032 296.928 55.21 294.992 52.4227 293.439L49.9902 297.808C52.8219 299.385 56.8736 301.65 62.5616 302.864L63.6055 297.974ZM52.4227 293.439C51.4275 292.885 50.4228 292.324 49.5029 291.914C48.6023 291.512 47.5067 291.125 46.3375 291.141C45.0199 291.159 43.8459 291.683 42.9032 292.66C42.0519 293.542 41.451 294.727 40.9674 296.035L45.6573 297.769C46.0433 296.724 46.3507 296.287 46.5011 296.132C46.5583 296.072 46.5604 296.088 46.5039 296.113C46.4443 296.139 46.3998 296.141 46.4064 296.141C46.4802 296.14 46.7753 296.172 47.468 296.481C48.1415 296.781 48.9326 297.219 49.9902 297.808L52.4227 293.439ZM40.9674 296.035L40.9586 296.059L45.6484 297.792L45.6573 297.769L40.9674 296.035ZM40.9586 296.059C39.522 299.945 37.1317 306.35 36.8779 312.194C36.7497 315.145 37.1473 318.232 38.7238 320.847C40.3552 323.553 43.0598 325.442 46.8901 326.26L47.9341 321.37C45.2542 320.798 43.8236 319.622 43.0058 318.266C42.1331 316.818 41.7675 314.844 41.8732 312.411C42.0869 307.49 44.1524 301.84 45.6484 297.792L40.9586 296.059ZM49.7074 324.805C51.2635 321.2 52.6972 318.855 54.156 317.334L50.5481 313.873C48.4874 316.02 46.7698 318.994 45.1167 322.824L49.7074 324.805ZM50.3598 317.114C51.8204 319.04 54.2966 321.096 57.2001 323.124C60.1561 325.189 63.7503 327.357 67.623 329.482C75.3672 333.729 84.3654 337.876 91.8927 340.737L93.6688 336.063C86.3646 333.287 77.5761 329.238 70.0276 325.098C66.254 323.028 62.8254 320.954 60.0632 319.025C57.2485 317.059 55.3113 315.369 54.3443 314.093L50.3598 317.114ZM91.8927 340.737C95.6522 342.165 99.3936 343.11 102.859 343.988L104.087 339.141C100.585 338.254 97.1176 337.373 93.6688 336.063L91.8927 340.737ZM102.931 344.005L102.931 344.005L104.016 339.124L104.016 339.124L102.931 344.005ZM102.859 343.988C109.944 345.783 115.741 347.308 120.228 351.693L123.722 348.116C118.118 342.64 110.939 340.877 104.087 339.141L102.859 343.988ZM120.228 351.693C121.393 352.83 123.1 353.989 125.101 353.513C127.072 353.045 128.013 351.296 128.463 350.082L123.775 348.343C123.712 348.512 123.654 348.638 123.605 348.729C123.555 348.821 123.523 348.862 123.516 348.87C123.51 348.878 123.539 348.841 123.613 348.791C123.692 348.738 123.804 348.682 123.945 348.649C124.086 348.615 124.211 348.615 124.302 348.627C124.388 348.638 124.422 348.657 124.397 348.646C124.371 348.634 124.298 348.597 124.178 348.51C124.059 348.423 123.907 348.297 123.722 348.116L120.228 351.693ZM127.837 351.029C132.294 346.815 138.009 345.314 144.971 343.55L143.743 338.703C137.01 340.409 129.959 342.142 124.402 347.396L127.837 351.029ZM144.971 343.55C148.437 342.672 152.178 341.727 155.938 340.298L154.162 335.624C150.713 336.935 147.246 337.816 143.743 338.703L144.971 343.55ZM155.938 340.298C163.465 337.438 172.464 333.291 180.208 329.043C184.081 326.919 187.675 324.75 190.631 322.685C193.534 320.657 196.01 318.602 197.471 316.675L193.486 313.654C192.519 314.93 190.582 316.62 187.768 318.586C185.006 320.516 181.577 322.589 177.803 324.659C170.255 328.8 161.466 332.849 154.162 335.624L155.938 340.298ZM193.675 316.895C195.133 318.416 196.567 320.761 198.123 324.367L202.714 322.385C201.061 318.555 199.343 315.582 197.283 313.434L193.675 316.895ZM200.941 325.821C204.771 325.003 207.475 323.115 209.107 320.408C210.683 317.793 211.081 314.707 210.953 311.756C210.699 305.911 208.309 299.507 206.872 295.62L202.182 297.354C203.678 301.401 205.744 307.051 205.958 311.973C206.063 314.405 205.698 316.379 204.825 317.827C204.007 319.183 202.576 320.359 199.897 320.931L200.941 325.821ZM206.872 295.62L206.863 295.596L202.174 297.33L202.182 297.354L206.872 295.62ZM206.863 295.596C206.38 294.288 205.779 293.103 204.927 292.221C203.985 291.244 202.811 290.721 201.493 290.702C200.324 290.686 199.228 291.074 198.328 291.475C197.408 291.885 196.403 292.447 195.408 293.001L197.84 297.369C198.898 296.78 199.689 296.342 200.363 296.042C201.055 295.733 201.351 295.701 201.424 295.702C201.431 295.702 201.386 295.701 201.327 295.674C201.27 295.649 201.272 295.634 201.33 295.693C201.48 295.849 201.787 296.285 202.173 297.33L206.863 295.596ZM195.408 293.001C192.621 294.553 189.127 296.489 184.225 297.536L185.269 302.425C190.957 301.211 195.009 298.946 197.84 297.369L195.408 293.001ZM184.225 297.536C180.904 298.245 178.109 299.013 175.841 299.919C173.587 300.821 171.692 301.922 170.321 303.385C168.89 304.912 168.137 306.722 168.019 308.769C167.906 310.729 168.381 312.795 169.171 314.932L173.861 313.198C173.186 311.373 172.953 310.045 173.01 309.056C173.062 308.154 173.356 307.459 173.97 306.804C174.643 306.085 175.792 305.324 177.697 304.562C179.59 303.805 182.074 303.108 185.269 302.425L184.225 297.536ZM172.038 316.51C177.618 315.318 181.742 314.444 185.059 314.223L184.726 309.234C180.967 309.485 176.437 310.458 170.994 311.62L172.038 316.51ZM183.621 309.576C174.983 314.676 153.565 322.999 131.792 323.133L131.823 328.133C154.616 327.993 176.891 319.356 186.163 313.881L183.621 309.576ZM128.096 237.082L129.307 325.667L134.307 325.599L133.096 237.014L128.096 237.082ZM155.739 234.548H130.596V239.548H155.739V234.548ZM153.239 226.394V237.048H158.239V226.394H153.239ZM130.45 228.894H155.739V223.894H130.45V228.894ZM127.808 216.059L127.95 226.428L132.95 226.36L132.808 215.991L127.808 216.059ZM129.599 199.757C129.599 203.224 126.704 206.136 123.006 206.136V211.136C129.352 211.136 134.599 206.097 134.599 199.757H129.599ZM123.006 193.378C126.704 193.378 129.599 196.29 129.599 199.757H134.599C134.599 193.417 129.352 188.378 123.006 188.378V193.378ZM116.414 199.757C116.414 196.29 119.309 193.378 123.006 193.378V188.378C116.66 188.378 111.414 193.417 111.414 199.757H116.414ZM123.006 206.136C119.309 206.136 116.414 203.224 116.414 199.757H111.414C111.414 206.097 116.66 211.136 123.006 211.136V206.136Z" fill="black" mask="url(#path-7-inside-3_47_73)"/>
<path fill-rule="evenodd" clip-rule="evenodd" d="M239.947 128C239.982 126.838 240 125.671 240 124.5C240 61.3011 188.551 10 125 10C61.4494 10 10 61.3011 10 124.5C10 125.671 10.0177 126.838 10.0527 128H0.0484424C0.016218 126.837 0 125.671 0 124.5C0 55.7405 55.9644 0 125 0C194.036 0 250 55.7405 250 124.5C250 125.671 249.984 126.837 249.952 128H239.947Z" fill="black"/>
<defs>
<linearGradient id="paint0_linear_47_73" x1="125" y1="104" x2="125" y2="157" gradientUnits="userSpaceOnUse">
<stop stop-color="#2ACCFF"/>
<stop offset="1" stop-color="#AFFAFF"/>
</linearGradient>
</defs>
</svg>
